<svg id="Facebook" xmlns="http://www.w3.org/2000/svg" width="33.007" height="33.007" viewBox="0 0 33.007 33.007">
  <g id="Facebook-2" data-name="Facebook">
    <path id="Path" d="M33.007,16.5a16.5,16.5,0,1,0-19.082,16.3V21.274H9.734V16.5h4.19V12.868c0-4.136,2.463-6.421,6.234-6.421a25.382,25.382,0,0,1,3.694.322V10.83H21.77a2.385,2.385,0,0,0-2.688,2.579V16.5h4.577l-.732,4.771H19.082V32.807A16.506,16.506,0,0,0,33.007,16.5Z" fill="#1877f2"/>
    <path id="Path-2" data-name="Path" d="M13.193,14.827l.732-4.771H9.348V6.962a2.385,2.385,0,0,1,2.688-2.579h2.082V.322A25.382,25.382,0,0,0,10.424,0C6.653,0,4.19,2.285,4.19,6.421v3.636H0v4.771H4.19V26.36a16.738,16.738,0,0,0,5.157,0V14.827Z" transform="translate(9.734 6.447)" fill="#fff"/>
  </g>
</svg>
