<svg xmlns="http://www.w3.org/2000/svg" xmlns:xlink="http://www.w3.org/1999/xlink" width="151" height="151" viewBox="0 0 151 151">
  <defs>
    <filter id="Path_87055" x="0" y="0" width="151" height="151" filterUnits="userSpaceOnUse">
      <feOffset dy="3" input="SourceAlpha"/>
      <feGaussianBlur stdDeviation="3" result="blur"/>
      <feFlood flood-opacity="0.161"/>
      <feComposite operator="in" in2="blur"/>
      <feComposite in="SourceGraphic"/>
    </filter>
    <filter id="Icon_feather-thumbs-up" x="42.035" y="41.035" width="67.749" height="68.493" filterUnits="userSpaceOnUse">
      <feOffset dy="3" input="SourceAlpha"/>
      <feGaussianBlur stdDeviation="3" result="blur-2"/>
      <feFlood flood-opacity="0.161"/>
      <feComposite operator="in" in2="blur-2"/>
      <feComposite in="SourceGraphic"/>
    </filter>
  </defs>
  <g id="Group_26773" data-name="Group 26773" transform="translate(-1490 -2162)">
    <g transform="matrix(1, 0, 0, 1, 1490, 2162)" filter="url(#Path_87055)">
      <path id="Path_87055-2" data-name="Path 87055" d="M66.5,0A66.5,66.5,0,1,1,0,66.5,66.5,66.5,0,0,1,66.5,0Z" transform="translate(9 6)" fill="#4cd586"/>
    </g>
    <g transform="matrix(1, 0, 0, 1, 1490, 2162)" filter="url(#Icon_feather-thumbs-up)">
      <path id="Icon_feather-thumbs-up-2" data-name="Icon feather-thumbs-up" d="M31.5,19.622v-9.5A7.124,7.124,0,0,0,24.372,3l-9.5,21.372V50.492H41.659a4.749,4.749,0,0,0,4.749-4.037l3.277-21.372a4.749,4.749,0,0,0-4.749-5.462ZM14.873,50.492H7.749A4.749,4.749,0,0,1,3,45.743V29.121a4.749,4.749,0,0,1,4.749-4.749h7.124" transform="translate(49.53 45.53)" fill="none" stroke="#fff" stroke-linecap="round" stroke-linejoin="round" stroke-width="3"/>
    </g>
  </g>
</svg>
