<svg id="LinkedIN" xmlns="http://www.w3.org/2000/svg" width="33.007" height="33.007" viewBox="0 0 33.007 33.007">
  <g id="LinkedIN-2" data-name="LinkedIN">
    <path id="back" d="M0,16.5a16.5,16.5,0,1,1,16.5,16.5A16.5,16.5,0,0,1,0,16.5Z" fill="#0077b5"/>
    <path id="Shape" d="M9.772,16.655H6.032c0-.091.049-10.189,0-11.237H9.772V7.009A4.2,4.2,0,0,1,10.9,5.794a3.865,3.865,0,0,1,2.244-.641,4.051,4.051,0,0,1,3.076,1.235,5.462,5.462,0,0,1,1.23,3.823v6.442h-3.74V10.642c0-1.159-.329-2.541-1.9-2.541a1.923,1.923,0,0,0-1.245.431,2.326,2.326,0,0,0-.673.935,2.471,2.471,0,0,0-.123.911v6.276Zm-5.811,0H.221V5.417H3.961V16.654ZM2.091,3.883H2.067A1.947,1.947,0,1,1,2.116,0,1.941,1.941,0,0,1,4.208,1.941a1.881,1.881,0,0,1-.569,1.376A2.181,2.181,0,0,1,2.091,3.883Z" transform="translate(7.702 8.252)" fill="#fff"/>
  </g>
</svg>
