<svg id="Twitter" xmlns="http://www.w3.org/2000/svg" width="33.007" height="33.007" viewBox="0 0 33.007 33.007">
  <g id="Twitter-2" data-name="Twitter">
    <path id="back" d="M0,16.5a16.5,16.5,0,1,1,16.5,16.5A16.5,16.5,0,0,1,0,16.5Z" fill="#55acee"/>
    <path id="Shape" d="M7.757,3.512l.035.571-.577-.07a9.389,9.389,0,0,1-5.495-2.7L.958.552l-.2.559a3.363,3.363,0,0,0,.716,3.45c.462.489.358.559-.439.268A1.361,1.361,0,0,0,.5,4.7,4.176,4.176,0,0,0,.912,6.263,3.728,3.728,0,0,0,2.493,7.754l.566.268-.67.012c-.646,0-.67.012-.6.256A3.49,3.49,0,0,0,3.948,10.2l.716.245-.623.373a6.5,6.5,0,0,1-3.094.862A3.418,3.418,0,0,0,0,11.775,8.782,8.782,0,0,0,2.228,12.8,9.751,9.751,0,0,0,9.8,11.938a10.135,10.135,0,0,0,3.844-4.522,12.021,12.021,0,0,0,.785-3.5c0-.536.035-.606.681-1.247a7.61,7.61,0,0,0,.808-.9c.115-.221.1-.221-.485-.023-.981.35-1.12.3-.635-.221A3.39,3.39,0,0,0,15.584.284c0-.035-.173.023-.369.128a6.44,6.44,0,0,1-1.016.4l-.623.2L13.01.622a4.7,4.7,0,0,0-.981-.513,3.944,3.944,0,0,0-2.02.047A3.337,3.337,0,0,0,7.757,3.512Z" transform="translate(8.252 9.902)" fill="#fff"/>
  </g>
</svg>
